<mxfile host="app.diagrams.net" agent="Mozilla/5.0 (Windows NT 10.0; Win64; x64) AppleWebKit/537.36 (KHTML, like Gecko) Chrome/136.0.0.0 Safari/537.36 Edg/136.0.0.0" version="26.0.16">
  <diagram name="Page-1" id="FgMkG59Oq2uNEKR8awdY">
    <mxGraphModel dx="1426" dy="781" grid="1" gridSize="10" guides="1" tooltips="1" connect="1" arrows="1" fold="1" page="1" pageScale="1" pageWidth="3300" pageHeight="4681" math="0" shadow="0">
      <root>
        <mxCell id="0" />
        <mxCell id="1" parent="0" />
        <mxCell id="faPCH6oqHpH7xQ-t1Snb-5" style="edgeStyle=orthogonalEdgeStyle;rounded=0;orthogonalLoop=1;jettySize=auto;html=1;exitX=0.5;exitY=1;exitDx=0;exitDy=0;" edge="1" parent="1" source="faPCH6oqHpH7xQ-t1Snb-1" target="faPCH6oqHpH7xQ-t1Snb-4">
          <mxGeometry relative="1" as="geometry" />
        </mxCell>
        <mxCell id="faPCH6oqHpH7xQ-t1Snb-8" style="edgeStyle=orthogonalEdgeStyle;rounded=0;orthogonalLoop=1;jettySize=auto;html=1;exitX=0.5;exitY=1;exitDx=0;exitDy=0;entryX=0;entryY=0.5;entryDx=0;entryDy=0;" edge="1" parent="1" source="faPCH6oqHpH7xQ-t1Snb-1" target="faPCH6oqHpH7xQ-t1Snb-2">
          <mxGeometry relative="1" as="geometry" />
        </mxCell>
        <mxCell id="faPCH6oqHpH7xQ-t1Snb-1" value="开始" style="ellipse;whiteSpace=wrap;html=1;aspect=fixed;" vertex="1" parent="1">
          <mxGeometry x="320" y="190" width="60" height="60" as="geometry" />
        </mxCell>
        <mxCell id="faPCH6oqHpH7xQ-t1Snb-14" style="edgeStyle=orthogonalEdgeStyle;rounded=0;orthogonalLoop=1;jettySize=auto;html=1;exitX=0.5;exitY=0;exitDx=0;exitDy=0;entryX=0.5;entryY=1;entryDx=0;entryDy=0;dashed=1;" edge="1" parent="1" source="faPCH6oqHpH7xQ-t1Snb-2" target="faPCH6oqHpH7xQ-t1Snb-3">
          <mxGeometry relative="1" as="geometry" />
        </mxCell>
        <mxCell id="faPCH6oqHpH7xQ-t1Snb-16" style="edgeStyle=orthogonalEdgeStyle;rounded=0;orthogonalLoop=1;jettySize=auto;html=1;exitX=1;exitY=0.5;exitDx=0;exitDy=0;" edge="1" parent="1" source="faPCH6oqHpH7xQ-t1Snb-2">
          <mxGeometry relative="1" as="geometry">
            <mxPoint x="580" y="340" as="targetPoint" />
          </mxGeometry>
        </mxCell>
        <mxCell id="faPCH6oqHpH7xQ-t1Snb-2" value="控制传输&lt;div&gt;配置输入模式&lt;/div&gt;" style="rounded=1;whiteSpace=wrap;html=1;" vertex="1" parent="1">
          <mxGeometry x="450" y="320" width="80" height="40" as="geometry" />
        </mxCell>
        <mxCell id="faPCH6oqHpH7xQ-t1Snb-15" style="edgeStyle=orthogonalEdgeStyle;rounded=0;orthogonalLoop=1;jettySize=auto;html=1;exitX=1;exitY=0.5;exitDx=0;exitDy=0;entryX=0;entryY=0.5;entryDx=0;entryDy=0;" edge="1" parent="1" source="faPCH6oqHpH7xQ-t1Snb-3" target="faPCH6oqHpH7xQ-t1Snb-11">
          <mxGeometry relative="1" as="geometry" />
        </mxCell>
        <mxCell id="faPCH6oqHpH7xQ-t1Snb-3" value="控制传输&lt;div&gt;配置输出模式&lt;/div&gt;" style="rounded=1;whiteSpace=wrap;html=1;" vertex="1" parent="1">
          <mxGeometry x="450" y="250" width="80" height="40" as="geometry" />
        </mxCell>
        <mxCell id="faPCH6oqHpH7xQ-t1Snb-7" style="edgeStyle=orthogonalEdgeStyle;rounded=0;orthogonalLoop=1;jettySize=auto;html=1;exitX=1;exitY=0.5;exitDx=0;exitDy=0;entryX=0;entryY=0.5;entryDx=0;entryDy=0;" edge="1" parent="1" source="faPCH6oqHpH7xQ-t1Snb-4" target="faPCH6oqHpH7xQ-t1Snb-6">
          <mxGeometry relative="1" as="geometry" />
        </mxCell>
        <mxCell id="faPCH6oqHpH7xQ-t1Snb-12" style="edgeStyle=orthogonalEdgeStyle;rounded=0;orthogonalLoop=1;jettySize=auto;html=1;exitX=1;exitY=0.5;exitDx=0;exitDy=0;entryX=0;entryY=0.5;entryDx=0;entryDy=0;" edge="1" parent="1" source="faPCH6oqHpH7xQ-t1Snb-4" target="faPCH6oqHpH7xQ-t1Snb-3">
          <mxGeometry relative="1" as="geometry" />
        </mxCell>
        <mxCell id="faPCH6oqHpH7xQ-t1Snb-4" value="选择接口配置" style="rounded=1;whiteSpace=wrap;html=1;" vertex="1" parent="1">
          <mxGeometry x="310" y="320" width="80" height="40" as="geometry" />
        </mxCell>
        <mxCell id="faPCH6oqHpH7xQ-t1Snb-13" style="edgeStyle=orthogonalEdgeStyle;rounded=0;orthogonalLoop=1;jettySize=auto;html=1;exitX=0.5;exitY=0;exitDx=0;exitDy=0;entryX=0.5;entryY=1;entryDx=0;entryDy=0;dashed=1;" edge="1" parent="1" source="faPCH6oqHpH7xQ-t1Snb-6" target="faPCH6oqHpH7xQ-t1Snb-2">
          <mxGeometry relative="1" as="geometry" />
        </mxCell>
        <mxCell id="faPCH6oqHpH7xQ-t1Snb-17" style="edgeStyle=orthogonalEdgeStyle;rounded=0;orthogonalLoop=1;jettySize=auto;html=1;exitX=1;exitY=0.5;exitDx=0;exitDy=0;entryX=0;entryY=0.5;entryDx=0;entryDy=0;" edge="1" parent="1" source="faPCH6oqHpH7xQ-t1Snb-6" target="faPCH6oqHpH7xQ-t1Snb-11">
          <mxGeometry relative="1" as="geometry" />
        </mxCell>
        <mxCell id="faPCH6oqHpH7xQ-t1Snb-6" value="启用IO端点" style="rounded=1;whiteSpace=wrap;html=1;" vertex="1" parent="1">
          <mxGeometry x="450" y="410" width="80" height="40" as="geometry" />
        </mxCell>
        <mxCell id="faPCH6oqHpH7xQ-t1Snb-18" style="edgeStyle=orthogonalEdgeStyle;rounded=0;orthogonalLoop=1;jettySize=auto;html=1;exitX=1;exitY=0.5;exitDx=0;exitDy=0;" edge="1" parent="1" source="faPCH6oqHpH7xQ-t1Snb-11">
          <mxGeometry relative="1" as="geometry">
            <mxPoint x="710" y="340" as="targetPoint" />
          </mxGeometry>
        </mxCell>
        <mxCell id="faPCH6oqHpH7xQ-t1Snb-11" value="配置波特率" style="rounded=1;whiteSpace=wrap;html=1;" vertex="1" parent="1">
          <mxGeometry x="580" y="320" width="80" height="40" as="geometry" />
        </mxCell>
        <mxCell id="faPCH6oqHpH7xQ-t1Snb-21" style="edgeStyle=orthogonalEdgeStyle;rounded=0;orthogonalLoop=1;jettySize=auto;html=1;exitX=0.5;exitY=1;exitDx=0;exitDy=0;entryX=0.5;entryY=1;entryDx=0;entryDy=0;" edge="1" parent="1" source="faPCH6oqHpH7xQ-t1Snb-19" target="faPCH6oqHpH7xQ-t1Snb-20">
          <mxGeometry relative="1" as="geometry" />
        </mxCell>
        <mxCell id="faPCH6oqHpH7xQ-t1Snb-19" value="读字符" style="rounded=1;whiteSpace=wrap;html=1;" vertex="1" parent="1">
          <mxGeometry x="710" y="320" width="80" height="40" as="geometry" />
        </mxCell>
        <mxCell id="faPCH6oqHpH7xQ-t1Snb-22" style="edgeStyle=orthogonalEdgeStyle;rounded=0;orthogonalLoop=1;jettySize=auto;html=1;exitX=0.5;exitY=0;exitDx=0;exitDy=0;entryX=0.5;entryY=0;entryDx=0;entryDy=0;" edge="1" parent="1" source="faPCH6oqHpH7xQ-t1Snb-20" target="faPCH6oqHpH7xQ-t1Snb-19">
          <mxGeometry relative="1" as="geometry" />
        </mxCell>
        <mxCell id="faPCH6oqHpH7xQ-t1Snb-20" value="写字符" style="rounded=1;whiteSpace=wrap;html=1;" vertex="1" parent="1">
          <mxGeometry x="830" y="320" width="80" height="40" as="geometry" />
        </mxCell>
      </root>
    </mxGraphModel>
  </diagram>
</mxfile>
